<svg width="28" height="28" viewBox="0 0 28 28" fill="none" xmlns="http://www.w3.org/2000/svg">
<path d="M14 28C21.732 28 28 21.732 28 14C28 6.26801 21.732 0 14 0C6.26801 0 0 6.26801 0 14C0 21.732 6.26801 28 14 28Z" fill="#F0F0F0"/>
<path d="M2.89395 5.47651C1.79424 6.9073 0.965014 8.5564 0.482178 10.3479H7.76535L2.89395 5.47651Z" fill="#0052B4"/>
<path d="M27.5177 10.3479C27.0348 8.55646 26.2056 6.90736 25.1059 5.47657L20.2346 10.3479H27.5177Z" fill="#0052B4"/>
<path d="M0.482178 17.6522C0.965068 19.4437 1.79429 21.0928 2.89395 22.5235L7.76519 17.6522H0.482178Z" fill="#0052B4"/>
<path d="M22.5234 2.89411C21.0927 1.7944 19.4436 0.965177 17.6521 0.482286V7.7654L22.5234 2.89411Z" fill="#0052B4"/>
<path d="M5.47656 25.1059C6.90735 26.2056 8.55645 27.0348 10.3479 27.5177V20.2346L5.47656 25.1059Z" fill="#0052B4"/>
<path d="M10.3479 0.482286C8.5564 0.965177 6.9073 1.7944 5.47656 2.89406L10.3479 7.76535V0.482286Z" fill="#0052B4"/>
<path d="M17.6523 27.5177C19.4438 27.0348 21.0929 26.2056 22.5236 25.1059L17.6523 20.2346V27.5177Z" fill="#0052B4"/>
<path d="M20.2346 17.6522L25.1059 22.5236C26.2056 21.0929 27.0348 19.4437 27.5177 17.6522H20.2346Z" fill="#0052B4"/>
<path d="M27.8815 12.1739H15.8262H15.8261V0.118508C15.2283 0.0406875 14.6189 0 14 0C13.381 0 12.7717 0.0406875 12.1739 0.118508V12.1738V12.1739H0.118508C0.0406875 12.7717 0 13.3811 0 14C0 14.619 0.0406875 15.2283 0.118508 15.8261H12.1738H12.1739V27.8815C12.7717 27.9593 13.381 28 14 28C14.6189 28 15.2283 27.9594 15.8261 27.8815V15.8262V15.8261H27.8815C27.9593 15.2283 28 14.619 28 14C28 13.3811 27.9593 12.7717 27.8815 12.1739Z" fill="#D80027"/>
<path d="M17.6521 17.6522L23.8994 23.8995C24.1867 23.6123 24.4608 23.312 24.7223 23.0007L19.3738 17.6522H17.6521V17.6522Z" fill="#D80027"/>
<path d="M10.3479 17.6522H10.3478L4.10059 23.8995C4.3878 24.1868 4.68809 24.4609 4.99937 24.7224L10.3479 19.3738V17.6522Z" fill="#D80027"/>
<path d="M10.3478 10.3479V10.3478L4.10053 4.10047C3.8132 4.38769 3.5391 4.68798 3.27759 4.99926L8.62619 10.3479L10.3478 10.3479Z" fill="#D80027"/>
<path d="M17.6521 10.3479L23.8994 4.10052C23.6122 3.81319 23.3119 3.5391 23.0006 3.27764L17.6521 8.62624V10.3479Z" fill="#D80027"/>
</svg>
